<svg id="SvgjsSvg1135" width="288" height="288" xmlns="http://www.w3.org/2000/svg" version="1.1" xmlns:xlink="http://www.w3.org/1999/xlink" xmlns:svgjs="http://svgjs.com/svgjs"><defs id="SvgjsDefs1136"></defs><g id="SvgjsG1137"><svg xmlns="http://www.w3.org/2000/svg" enable-background="new 0 0 24 24" viewBox="0 0 24 24" width="288" height="288"><path d="M21.7798,14.0601c-0.0581-0.0776-0.1279-0.1562-0.1987-0.2339c-0.0005-0.0005-0.0747-0.0825-0.0752-0.0835			c-0.2891-0.314-0.5962-0.5781-0.9136-0.7852c-0.0405-0.0322-0.083-0.061-0.1279-0.0864
			c-0.0059-0.0039-0.0122-0.0078-0.0186-0.0117c-0.2505-0.1548-0.502-0.2969-0.7842-0.4194
			c-0.6253-0.2663-1.3215-0.3965-1.9897-0.4205c-0.011-0.0782-0.0128-0.1553-0.0254-0.2338
			c-0.019-0.114-0.0607-0.2209-0.0864-0.3331l0.9688-0.6039c0.1567-0.0977,0.2832-0.2363,0.3657-0.4014l1-2
			c0.2471-0.4941,0.0469-1.0947-0.4473-1.3418c-0.4956-0.2471-1.0952-0.0464-1.3418,0.4473l-0.874,1.748l-0.4667,0.291
			c-0.2997-0.4556-0.6479-0.8802-1.0699-1.2358C15.4696,8.1656,15.2359,8.002,15,7.8564V7c0-0.4586-0.1111-0.894-0.2999-1.2884
			c0.002-0.002,0.0049-0.0026,0.0069-0.0046l1-1c0.3906-0.3906,0.3906-1.0234,0-1.4141s-1.0234-0.3906-1.4141,0l-1,1
			c-0.0024,0.0024-0.0031,0.0057-0.0054,0.0081C12.891,4.1105,12.4568,4,12,4c-0.3874,0-0.7551,0.0796-1.0953,0.2139l-1.291-1.0034
			c-0.4365-0.3384-1.064-0.2612-1.4033,0.1758c-0.3389,0.436-0.2603,1.0645,0.1758,1.4033L9.3825,5.564C9.1464,5.9924,9,6.4771,9,7
			v0.8568C8.7621,8.0034,8.5291,8.1667,8.3057,8.3555c-0.4647,0.3917-0.8486,0.861-1.164,1.3721L6.8218,9.4077l-0.9272-1.855
			C5.6475,7.0591,5.0479,6.8584,4.5527,7.1055C4.0586,7.3525,3.8584,7.9531,4.1055,8.4473l1,2
			c0.0483,0.0962,0.1113,0.1841,0.1875,0.2598l1,1c0.0204,0.0204,0.0475,0.0277,0.0693,0.046
			c-0.0023,0.0128-0.0076,0.0247-0.0097,0.0375C6.2891,12.1834,6.2473,12.5888,6.2188,13H5c-0.5522,0-1,0.4478-1,1s0.4478,1,1,1
			h1.2188c0.0286,0.4119,0.0707,0.8186,0.1347,1.2144c0.0019,0.0114,0.0065,0.0215,0.0085,0.0328
			c-0.0216,0.0182-0.0486,0.0255-0.069,0.0458l-1,1c-0.0762,0.0757-0.1392,0.1636-0.1875,0.2598l-1,2
			c-0.2471,0.4941-0.0469,1.0947,0.4473,1.3418C4.6963,20.9663,4.8491,21,4.999,21c0.3672,0,0.7202-0.2021,0.8955-0.5527
			l0.9272-1.855l0.3148-0.3148C8.151,19.9264,9.9551,21,12,21c0.3918,0,0.778-0.0527,1.1595-0.1321
			c0.0991,0.1277,0.2072,0.2519,0.3263,0.3699c0.1113,0.124,0.2354,0.2485,0.3394,0.3413c0.04,0.04,0.1108,0.1108,0.2148,0.1816
			C15.0024,22.5605,16.228,23,17.5,23c1.3384,0,2.6177-0.48,3.5894-1.3398C22.3037,20.6235,23,19.1069,23,17.5
			c0-0.8608-0.2036-1.7158-0.5918-2.479C22.2168,14.6504,21.9941,14.3125,21.7798,14.0601z M12.7124,6.3062
			C12.8979,6.4868,13,6.7329,13,7v0.0879c-0.0565-0.0101-0.1157-0.0068-0.1726-0.0152c-0.2232-0.0324-0.4471-0.0528-0.6719-0.059
			C12.1031,7.0123,12.0527,7,12,7c-0.0469,0-0.0917,0.011-0.1384,0.0121c-0.2385,0.0054-0.4752,0.0277-0.7102,0.0624
			C11.1016,7.0822,11.0495,7.079,11,7.0879V7c0-0.5513,0.4487-1,1-1C12.2671,6,12.5132,6.1021,12.7124,6.3062z M8.3271,15.8901
			C8.2295,15.2876,8.1802,14.6514,8.1802,14s0.0493-1.2876,0.146-1.8853c0.1455-0.8711,0.5962-1.6631,1.269-2.2305
			c0.2632-0.2222,0.5371-0.3975,0.8345-0.5312c0.8349-0.3972,1.7963-0.4369,2.6717-0.161c0.1641,0.0521,0.3293,0.0946,0.4904,0.1713
			c0.2759,0.1235,0.5498,0.2988,0.8135,0.5215c0.6724,0.5669,1.123,1.3589,1.2676,2.2246c0.0103,0.0645,0.02,0.1284,0.0293,0.1929
			c-0.049,0.0169-0.0923,0.0474-0.1407,0.0657c-0.2511,0.0949-0.494,0.2085-0.7295,0.3406
			c-0.0818,0.0458-0.1631,0.091-0.2429,0.1413c-0.2849,0.1798-0.5609,0.3775-0.8161,0.613l-0.27,0.27
			c-0.0371,0.0366-0.0693,0.0732-0.1519,0.1646C12.48,14.8823,12,16.1616,12,17.5c0,0.2916,0.0284,0.576,0.0735,0.8576
			c0.0142,0.0886,0.038,0.1767,0.0568,0.2646c0.0265,0.1239,0.0439,0.2488,0.0797,0.3719
			C10.3335,19.1074,8.6387,17.7593,8.3271,15.8901z M19.7773,20.1509c-1.2178,1.0771-3.2583,1.1006-4.4971,0.04
			c-0.0239-0.021-0.0493-0.0405-0.0757-0.0591c-0.0005-0.0005-0.0015-0.0015-0.0024-0.0024
			c-0.0835-0.0757-0.1597-0.1519-0.2949-0.2964c-0.1265-0.1265-0.2236-0.2515-0.2881-0.3706
			c-0.0264-0.0479-0.0562-0.0933-0.0894-0.1362l-0.0679-0.1138c-0.0703-0.1191-0.1353-0.2368-0.1841-0.3696
			c-0.0195-0.0518-0.0264-0.0796-0.0542-0.1279c-0.0029-0.0088-0.0322-0.0923-0.0356-0.1016C14.0635,18.2759,14,17.9009,14,17.5
			c0-0.8496,0.3018-1.6587,0.8071-2.2329c0.0371-0.0366,0.0693-0.0732,0.1099-0.1201l0.2402-0.2417
			c0.4937-0.4541,1.1094-0.751,1.7949-0.8599c0.6147-0.1084,1.3184-0.0244,1.9189,0.2314c0.1792,0.0781,0.3423,0.1724,0.5059,0.2734
			c0.0278,0.0205,0.0566,0.04,0.0859,0.0581l-0.0005,0.001c0.1904,0.1182,0.3828,0.2822,0.5537,0.4678l0.1982,0.2261
			c0.1533,0.1826,0.2935,0.3965,0.4141,0.6299C20.8716,16.4111,21,16.9526,21,17.5C21,18.521,20.5591,19.4829,19.7773,20.1509z" fill="#ffffff" class="color000 svgShape"></path><path d="M18.2603,15.9468l-1.293,1.293l-0.293-0.293c-0.3906-0.3906-1.0234-0.3906-1.4141,0s-0.3906,1.0234,0,1.4141l1,1
			c0.1953,0.1953,0.4512,0.293,0.707,0.293s0.5117-0.0977,0.707-0.293l2-2c0.3906-0.3906,0.3906-1.0234,0-1.4141
			S18.6509,15.5562,18.2603,15.9468z" fill="#ffffff" class="color000 svgShape"></path></svg></g></svg>