<svg xmlns="http://www.w3.org/2000/svg"  viewBox="0 0 64 64" width="96px" height="96px" baseProfile="basic"><linearGradient id="tZ0OBa3ZuPbVJsJp92Dxra" x1="32" x2="32" y1="10" y2="54" gradientUnits="userSpaceOnUse"><stop offset="0" stop-color="#6dc7ff"/><stop offset="1" stop-color="#e6abff"/></linearGradient><path fill="url(#tZ0OBa3ZuPbVJsJp92Dxra)" d="M32,10c-12.15,0-22,9.85-22,22c0,12.15,9.85,22,22,22s22-9.85,22-22C54,19.85,44.15,10,32,10z M40.817,36.713c-1.158,2.753-3.306,5.274-7.281,5.274c0,0-1.685-11.745-1.711-12.015c-0.103,0.283-2.483,6.458-2.483,6.458	c-1.119,2.856-3.255,5.544-7.23,5.557L19,23c2.586,0,5.776,2.122,6.007,5.622c0,0,0.399,6.959,0.412,7.513	c0.219-0.592,2.92-7.59,2.92-7.59c1.068-2.869,3.087-5.557,6.882-5.557c0,0,1.621,12.529,1.685,13.121	c0.167-0.592,2.393-7.564,2.393-7.564c1.068-2.869,3.139-5.557,7.075-5.557L40.817,36.713z"/><linearGradient id="tZ0OBa3ZuPbVJsJp92Dxrb" x1="32" x2="32" y1="-724" y2="-776" gradientTransform="matrix(1 0 0 -1 0 -718)" gradientUnits="userSpaceOnUse"><stop offset="0" stop-color="#1a6dff"/><stop offset="1" stop-color="#c822ff"/></linearGradient><path fill="url(#tZ0OBa3ZuPbVJsJp92Dxrb)" d="M32,58C17.663,58,6,46.337,6,32S17.663,6,32,6s26,11.663,26,26S46.337,58,32,58z M32,8	C18.767,8,8,18.767,8,32s10.767,24,24,24s24-10.767,24-24S45.233,8,32,8z"/></svg>