<svg id="SvgjsSvg1153" width="288" height="288" xmlns="http://www.w3.org/2000/svg" version="1.1" xmlns:xlink="http://www.w3.org/1999/xlink" xmlns:svgjs="http://svgjs.com/svgjs"><defs id="SvgjsDefs1154"></defs><g id="SvgjsG1155"><svg xmlns="http://www.w3.org/2000/svg" viewBox="0 0 96 96" width="288" height="288"><switch><g><path d="M56 88H20c-2.21 0-4-1.79-4-4V16.698c-4.658 1.65-8 6.08-8 11.303v56c0 6.627 5.373 12 12 12h40c5.223 0 9.652-3.343 11.303-8H56zM76 0H36c-6.627 0-12 5.374-12 12v56c0 6.628 5.373 12.001 12 12.001h40c6.627 0 12-5.373 12-12.001V12c0-6.626-5.373-12-12-12zm4 68a4 4 0 0 1-4 4.001H36A4 4 0 0 1 32 68V12a4 4 0 0 1 4-4h40c2.21 0 4 1.79 4 4v56z" fill="#ffffff" class="color000 svgShape"></path></g></switch></svg></g></svg>